<svg id="Layer_2" data-name="Layer 2" xmlns="http://www.w3.org/2000/svg" viewBox="0 0 67.46 20"><defs><style>.cls-1{fill:#fff;}</style></defs><title>appstore</title><path class="cls-1" d="M9363.25,8232.34a1.91,1.91,0,0,1-1.91,1.91H9298.6a1.92,1.92,0,0,1-1.92-1.91v-15.27a1.92,1.92,0,0,1,1.92-1.92h62.76a1.91,1.91,0,0,1,1.92,1.91h0v15.27h0Z" transform="translate(-9296.26 -8214.7)"/><path d="M9361.36,8234.7h-62.73a2.36,2.36,0,0,1-2.36-2.36v-15.27a2.36,2.36,0,0,1,2.36-2.36h62.73a2.37,2.37,0,0,1,2.36,2.36v15.28a2.36,2.36,0,0,1-2.36,2.36h0Z" transform="translate(-9296.26 -8214.7)"/><path d="M9363.25,8232.34a1.91,1.91,0,0,1-1.91,1.91H9298.6a1.92,1.92,0,0,1-1.92-1.91v-15.27a1.92,1.92,0,0,1,1.92-1.92h62.76a1.91,1.91,0,0,1,1.92,1.91h0v15.27h0Z" transform="translate(-9296.26 -8214.7)"/><path class="cls-1" d="M9311.3,8224.6a2.9,2.9,0,0,1,1.38-2.43,3,3,0,0,0-2.34-1.26c-1-.1-1.94.59-2.44,0.59a15.21,15.21,0,0,0-2.11-.56,3.11,3.11,0,0,0-2.62,1.6c-1.13,2-.29,4.84.8,6.43,0.54,0.77,1.18,1.64,2,1.61s1.11-.5,2.09-0.5,1.25,0.5,2.1.5,1.42-.78,1.94-1.56a6.41,6.41,0,0,0,.89-1.81A2.8,2.8,0,0,1,9311.3,8224.6Z" transform="translate(-9296.26 -8214.7)"/><path class="cls-1" d="M9309.7,8219.85a2.85,2.85,0,0,0,.65-2,2.9,2.9,0,0,0-1.88,1,2.71,2.71,0,0,0-.67,2A2.4,2.4,0,0,0,9309.7,8219.85Z" transform="translate(-9296.26 -8214.7)"/><path class="cls-1" d="M9323.07,8230.45h-1.13l-0.62-2h-2.16l-0.59,2h-1.1l2.14-6.65h1.32Zm-1.94-2.77-0.56-1.74q-0.09-.26-0.33-1.25h0q-0.1.43-.31,1.25l-0.55,1.74h1.77Z" transform="translate(-9296.26 -8214.7)"/><path class="cls-1" d="M9328.57,8228a2.72,2.72,0,0,1-.66,1.93,2,2,0,0,1-1.5.63,1.5,1.5,0,0,1-1.37-.68v2.5H9324v-5.16q0-.77,0-1.58h0.93l0.06,0.76h0a1.89,1.89,0,0,1,3-.19A2.65,2.65,0,0,1,9328.57,8228Zm-1.08,0a2,2,0,0,0-.31-1.15,1.09,1.09,0,0,0-.93-0.47,1.11,1.11,0,0,0-.71.26,1.21,1.21,0,0,0-.42.68,1.39,1.39,0,0,0-.05.32v0.8a1.28,1.28,0,0,0,.32.88,1.07,1.07,0,0,0,.83.36,1.09,1.09,0,0,0,.94-0.46,2,2,0,0,0,.33-1.22h0Z" transform="translate(-9296.26 -8214.7)"/><path class="cls-1" d="M9334.09,8228a2.72,2.72,0,0,1-.66,1.93,2,2,0,0,1-1.5.63,1.5,1.5,0,0,1-1.37-.68v2.5h-1.06v-5.16q0-.77,0-1.58h0.94l0.06,0.76h0a1.89,1.89,0,0,1,3-.19A2.65,2.65,0,0,1,9334.09,8228Zm-1.08,0a2,2,0,0,0-.31-1.15,1.09,1.09,0,0,0-.92-0.47,1.11,1.11,0,0,0-.71.26,1.21,1.21,0,0,0-.42.68,1.41,1.41,0,0,0-.05.32v0.8a1.28,1.28,0,0,0,.32.88,1.07,1.07,0,0,0,.83.36,1.09,1.09,0,0,0,.94-0.46,2,2,0,0,0,.33-1.22h0Z" transform="translate(-9296.26 -8214.7)"/><path class="cls-1" d="M9340.26,8228.59a1.77,1.77,0,0,1-.59,1.38,2.62,2.62,0,0,1-1.81.58,3.16,3.16,0,0,1-1.72-.41l0.24-.89a3,3,0,0,0,1.54.41,1.45,1.45,0,0,0,.94-0.27,0.88,0.88,0,0,0,.33-0.72,0.93,0.93,0,0,0-.27-0.68,2.57,2.57,0,0,0-.92-0.5q-1.75-.65-1.75-1.9a1.68,1.68,0,0,1,.61-1.34,2.44,2.44,0,0,1,1.63-.5,3.23,3.23,0,0,1,1.5.31l-0.27.87a2.64,2.64,0,0,0-1.28-.3,1.3,1.3,0,0,0-.88.27,0.79,0.79,0,0,0-.27.6,0.81,0.81,0,0,0,.3.65,3.45,3.45,0,0,0,1,.5,3.28,3.28,0,0,1,1.26.81A1.68,1.68,0,0,1,9340.26,8228.59Z" transform="translate(-9296.26 -8214.7)"/><path class="cls-1" d="M9343.79,8226.45h-1.17v2.33q0,0.89.62,0.89a1.87,1.87,0,0,0,.47-0.05l0,0.81a2.41,2.41,0,0,1-.83.12,1.28,1.28,0,0,1-1-.38,1.89,1.89,0,0,1-.35-1.29v-2.42h-0.69v-0.8h0.7v-0.88l1-.31v1.19h1.17v0.8h0Z" transform="translate(-9296.26 -8214.7)"/><path class="cls-1" d="M9349.08,8228a2.63,2.63,0,0,1-.63,1.81,2.25,2.25,0,0,1-1.75.73,2.15,2.15,0,0,1-1.68-.7,2.55,2.55,0,0,1-.62-1.76,2.61,2.61,0,0,1,.64-1.82,2.24,2.24,0,0,1,1.74-.71,2.19,2.19,0,0,1,1.7.7A2.5,2.5,0,0,1,9349.08,8228Zm-1.1,0a2.15,2.15,0,0,0-.28-1.13,1.05,1.05,0,0,0-1-.57,1.07,1.07,0,0,0-1,.57,2.18,2.18,0,0,0-.28,1.15,2.14,2.14,0,0,0,.28,1.13,1.09,1.09,0,0,0,1.92,0,2.16,2.16,0,0,0,.32-1.13v0Z" transform="translate(-9296.26 -8214.7)"/><path class="cls-1" d="M9352.55,8226.59a1.83,1.83,0,0,0-.33,0,1,1,0,0,0-.87.42,1.6,1.6,0,0,0-.26.95v2.5H9350v-3.29c0-.55,0-1.05,0-1.5h0.93l0,0.92h0a1.64,1.64,0,0,1,.53-0.76,1.29,1.29,0,0,1,.77-0.25h0.26v1h0v0Z" transform="translate(-9296.26 -8214.7)"/><path class="cls-1" d="M9357.32,8227.84a2.51,2.51,0,0,1,0,.5h-3.2a1.39,1.39,0,0,0,.46,1.08,1.59,1.59,0,0,0,1,.33,3.53,3.53,0,0,0,1.29-.23l0.16,0.74a4,4,0,0,1-1.61.29,2.33,2.33,0,0,1-1.75-.65,2.43,2.43,0,0,1-.63-1.76,2.75,2.75,0,0,1,.59-1.8,2,2,0,0,1,1.68-.77,1.79,1.79,0,0,1,1.57.77A2.58,2.58,0,0,1,9357.32,8227.84Zm-1-.27a1.45,1.45,0,0,0-.2-0.82,0.93,0.93,0,0,0-.85-0.44,1,1,0,0,0-.85.43,1.6,1.6,0,0,0-.31.83h2.22Z" transform="translate(-9296.26 -8214.7)"/><path class="cls-1" d="M9320.61,8221.42h-0.56l-0.3-1h-1.06l-0.29,1h-0.52l1.05-3.27h0.65Zm-1-1.36-0.27-.85q0-.13-0.16-0.61h0l-0.15.61-0.27.85h0.86Z" transform="translate(-9296.26 -8214.7)"/><path class="cls-1" d="M9323.24,8219.06l-0.89,2.36h-0.5l-0.86-2.36h0.56l0.4,1.24c0.07,0.21.12,0.41,0.17,0.59h0c0-.17.09-0.37,0.17-0.59l0.4-1.24h0.55Z" transform="translate(-9296.26 -8214.7)"/><path class="cls-1" d="M9325.15,8221.42l0-.27h0a0.8,0.8,0,0,1-.69.32,0.68,0.68,0,0,1-.72-0.64s0,0,0-.05c0-.58.5-0.88,1.38-0.88v0a0.43,0.43,0,0,0-.38-0.47h-0.12a1.1,1.1,0,0,0-.61.18l-0.1-.34a1.5,1.5,0,0,1,.81-0.21,0.84,0.84,0,0,1,.92,1v0.84a3.51,3.51,0,0,0,0,.56h-0.48Zm-0.07-1.17c-0.58,0-.87.14-0.87,0.5a0.33,0.33,0,0,0,.3.37h0.06a0.5,0.5,0,0,0,.5-0.5v-0.36h0Z" transform="translate(-9296.26 -8214.7)"/><path class="cls-1" d="M9326.75,8218.67a0.31,0.31,0,1,1,.33-0.31,0.31,0.31,0,0,1-.3.32h0Zm0.27,2.74h-0.5v-2.36h0.5v2.36Z" transform="translate(-9296.26 -8214.7)"/><path class="cls-1" d="M9328.47,8221.42H9328V8218h0.5v3.44Z" transform="translate(-9296.26 -8214.7)"/><path class="cls-1" d="M9330.7,8221.42l0-.27h0a0.8,0.8,0,0,1-.69.32,0.68,0.68,0,0,1-.72-0.64s0,0,0-.05c0-.58.5-0.88,1.38-0.88v0a0.43,0.43,0,0,0-.38-0.47h-0.12a1.1,1.1,0,0,0-.61.18l-0.1-.34a1.5,1.5,0,0,1,.81-0.21,0.84,0.84,0,0,1,.92,1v0.84a3.66,3.66,0,0,0,0,.56h-0.48Zm-0.07-1.17c-0.58,0-.87.14-0.87,0.5a0.33,0.33,0,0,0,.3.37h0.06a0.5,0.5,0,0,0,.5-0.5v-0.36h0Z" transform="translate(-9296.26 -8214.7)"/><path class="cls-1" d="M9333.26,8221.47a0.8,0.8,0,0,1-.74-0.42h0l0,0.36H9332V8218h0.52v1.43h0a0.81,0.81,0,0,1,.75-0.39,1.05,1.05,0,0,1,1,1.19,1.13,1.13,0,0,1-1,1.26h0Zm-0.1-2a0.6,0.6,0,0,0-.58.62v0.41a0.58,0.58,0,0,0,.57.59h0a0.85,0.85,0,0,0,.06-1.62h-0.05Z" transform="translate(-9296.26 -8214.7)"/><path class="cls-1" d="M9335.6,8221.42h-0.5V8218h0.5v3.44Z" transform="translate(-9296.26 -8214.7)"/><path class="cls-1" d="M9338.46,8220.35h-1.59a0.67,0.67,0,0,0,.65.7h0.09a1.77,1.77,0,0,0,.63-0.11l0.08,0.36a2,2,0,0,1-.79.14,1.1,1.1,0,0,1-1.17-1.19,1.15,1.15,0,0,1,1-1.26h0.09a1,1,0,0,1,1,1A12.62,12.62,0,0,0,9338.46,8220.35Zm-0.5-.37a0.53,0.53,0,0,0-.44-0.61h-0.06a0.62,0.62,0,0,0-.57.62H9338Z" transform="translate(-9296.26 -8214.7)"/><path class="cls-1" d="M9341.63,8221.47a1.12,1.12,0,0,1-1.14-1.11s0-.07,0-0.1a1.15,1.15,0,0,1,1.05-1.24h0.12a1.11,1.11,0,0,1,1.13,1.21,1.15,1.15,0,0,1-1.06,1.25h-0.12Zm0-2.08a0.88,0.88,0,0,0,0,1.69,0.74,0.74,0,0,0,.62-0.85h0a0.72,0.72,0,0,0-.59-0.83h0Z" transform="translate(-9296.26 -8214.7)"/><path class="cls-1" d="M9345.63,8221.42h-0.5v-1.35a0.5,0.5,0,0,0-.5-0.62,0.54,0.54,0,0,0-.5.58v1.4h-0.5v-2.36h0.46v0.36h0a0.84,0.84,0,0,1,.74-0.41,0.85,0.85,0,0,1,.83.88,0.84,0.84,0,0,1,0,.12v1.41h0Z" transform="translate(-9296.26 -8214.7)"/><path class="cls-1" d="M9349.05,8219.45h-0.57v1.14q0,0.43.3,0.43H9349v0.4a1.16,1.16,0,0,1-.4.06,0.66,0.66,0,0,1-.66-0.82v-1.19h-0.34v-0.39H9348v-0.43l0.5-.15v0.58H9349v0.39Z" transform="translate(-9296.26 -8214.7)"/><path class="cls-1" d="M9351.83,8221.42h-0.5v-1.34a0.51,0.51,0,0,0-.5-0.63,0.5,0.5,0,0,0-.5.5,0.51,0.51,0,0,0,0,.06v1.42h-0.5V8218h0.5v1.41h0a0.79,0.79,0,0,1,.71-0.38,0.85,0.85,0,0,1,.8,1v1.4h0Z" transform="translate(-9296.26 -8214.7)"/><path class="cls-1" d="M9354.51,8220.35h-1.57a0.67,0.67,0,0,0,.65.7h0.09a1.76,1.76,0,0,0,.63-0.11l0.08,0.36a2,2,0,0,1-.79.14,1.1,1.1,0,0,1-1.17-1.19,1.15,1.15,0,0,1,1-1.26h0.09a1,1,0,0,1,1,1,1,1,0,0,1,0,.13A1,1,0,0,1,9354.51,8220.35Zm-0.5-.37a0.53,0.53,0,0,0-.44-0.61h-0.06a0.62,0.62,0,0,0-.57.62H9354Z" transform="translate(-9296.26 -8214.7)"/></svg>