<svg id="Layer_2" data-name="Layer 2" xmlns="http://www.w3.org/2000/svg" xmlns:xlink="http://www.w3.org/1999/xlink" viewBox="0 0 67.46 20"><defs><style>.cls-1{fill:none;}.cls-2{fill:#fff;}.cls-3{fill:#e1e1e1;}.cls-4{clip-path:url(#clip-path);}.cls-5{fill:url(#linear-gradient);}.cls-6{fill:url(#linear-gradient-2);}.cls-7{fill:url(#linear-gradient-3);}.cls-8{fill:url(#linear-gradient-4);}</style><clipPath id="clip-path" transform="translate(-9374.21 -8214.7)"><path class="cls-1" d="M9388.54,8222.32l-2.81-1.55-5.42-3c-0.3-.16-0.6-0.06-0.6.28v12.22c0,0.26.21,0.37,0.5,0.23l5.54-3.07,2.81-1.55,2.7-1.5c0.31-.18.28-0.41,0-0.55S9388.54,8222.32,9388.54,8222.32Z"/></clipPath><linearGradient id="linear-gradient" x1="9383.2" y1="7982.46" x2="9383.2" y2="7969.23" gradientTransform="matrix(1, 0, 0, -1, -9374.21, 7985.24)" gradientUnits="userSpaceOnUse"><stop offset="0" stop-color="#207cb0"/><stop offset="0.38" stop-color="#3cb2bf"/><stop offset="0.8" stop-color="#58e9ce"/><stop offset="1" stop-color="#63ffd4"/></linearGradient><linearGradient id="linear-gradient-2" x1="9379.72" y1="7979.17" x2="9388.54" y2="7979.17" gradientTransform="matrix(1, 0, 0, -1, -9374.21, 7985.24)" gradientUnits="userSpaceOnUse"><stop offset="0" stop-color="#4bc3ae"/><stop offset="1" stop-color="#dee999"/></linearGradient><linearGradient id="linear-gradient-3" x1="9384.13" y1="7975.84" x2="9384.13" y2="7969.18" gradientTransform="matrix(1, 0, 0, -1, -9374.21, 7985.24)" gradientUnits="userSpaceOnUse"><stop offset="0" stop-color="#ec403d"/><stop offset="0.38" stop-color="#c93b75"/><stop offset="0.8" stop-color="#a636ac"/><stop offset="1" stop-color="#9934c2"/></linearGradient><linearGradient id="linear-gradient-4" x1="9389.21" y1="7977.62" x2="9389.21" y2="7974.06" gradientTransform="matrix(1, 0, 0, -1, -9374.21, 7985.24)" gradientUnits="userSpaceOnUse"><stop offset="0" stop-color="#f87"/><stop offset="0.61" stop-color="#ffb175"/><stop offset="1" stop-color="#ffc774"/></linearGradient></defs><title>google-play</title><path class="cls-2" d="M9441.21,8232.34a1.91,1.91,0,0,1-1.91,1.91h-62.74a1.92,1.92,0,0,1-1.92-1.91v-15.27a1.92,1.92,0,0,1,1.92-1.92h62.75a1.91,1.91,0,0,1,1.92,1.91h0v15.27h0Z" transform="translate(-9374.21 -8214.7)"/><path d="M9439.31,8234.7h-62.73a2.36,2.36,0,0,1-2.36-2.36v-15.27a2.36,2.36,0,0,1,2.36-2.36h62.73a2.37,2.37,0,0,1,2.36,2.36v15.28a2.36,2.36,0,0,1-2.36,2.36h0Z" transform="translate(-9374.21 -8214.7)"/><path d="M9441.21,8232.34a1.91,1.91,0,0,1-1.91,1.91h-62.74a1.92,1.92,0,0,1-1.92-1.91v-15.27a1.92,1.92,0,0,1,1.92-1.92h62.75a1.91,1.91,0,0,1,1.92,1.91h0v15.27h0Z" transform="translate(-9374.21 -8214.7)"/><path class="cls-3" d="M9397.62,8218.07a1.33,1.33,0,0,1,1,.41l-0.32.36a0.85,0.85,0,0,0-.65-0.27,1.21,1.21,0,0,0,0,2.38,0.72,0.72,0,0,0,.46-0.14v-0.7h-0.61v-0.47h1.13v1.44a1.58,1.58,0,0,1-1.05.39,1.51,1.51,0,0,1-1.53-1.68,1.55,1.55,0,0,1,1.39-1.7h0.18Z" transform="translate(-9374.21 -8214.7)"/><path class="cls-3" d="M9400.28,8218.89a1,1,0,0,1,1,1.16,1.25,1.25,0,0,1,0,.27h-1.56a0.7,0.7,0,0,0,.71.7h0a1,1,0,0,0,.57-0.18l0.19,0.36a1.55,1.55,0,0,1-.84.26A1.29,1.29,0,0,1,9400.28,8218.89Zm0.5,1.07a0.5,0.5,0,0,0-.36-0.61l-0.14,0a0.62,0.62,0,0,0-.59.62h1.09Z" transform="translate(-9374.21 -8214.7)"/><path class="cls-3" d="M9401.86,8219.4h-0.35V8219h0.38l0.07-.67h0.5V8219h0.62v0.45h-0.62v1.17a0.34,0.34,0,0,0,.25.42h0.1a0.7,0.7,0,0,0,.25-0.05l0.1,0.42a1.57,1.57,0,0,1-.5.09,0.74,0.74,0,0,1-.78-0.89v-1.17Z" transform="translate(-9374.21 -8214.7)"/><path class="cls-3" d="M9404.54,8218.19a0.35,0.35,0,1,1,.38.32h0a0.33,0.33,0,0,1-.35-0.3v0Zm0.06,0.75h0.57v2.45h-0.57v-2.45Z" transform="translate(-9374.21 -8214.7)"/><path class="cls-3" d="M9406,8219.4h-0.35V8219H9406l0.07-.67h0.5V8219h0.62v0.45h-0.62v1.17a0.34,0.34,0,0,0,.25.42h0.1a0.7,0.7,0,0,0,.25-0.05l0.1,0.42a1.57,1.57,0,0,1-.5.09,0.74,0.74,0,0,1-.78-0.89v-1.17Z" transform="translate(-9374.21 -8214.7)"/><path class="cls-3" d="M9409.75,8218.89a1.29,1.29,0,1,1-1.16,1.42,1.25,1.25,0,0,1,0-.13,1.19,1.19,0,0,1,1.09-1.29h0.08Zm0,2.1a0.87,0.87,0,1,0-.57-0.81A0.68,0.68,0,0,0,9409.75,8221Z" transform="translate(-9374.21 -8214.7)"/><path class="cls-3" d="M9411.49,8218.95H9412l0,0.33h0a1.14,1.14,0,0,1,.8-0.39,0.78,0.78,0,0,1,.75,1v1.54H9413v-1.46c0-.4-0.11-0.55-0.38-0.55a0.78,0.78,0,0,0-.56.3v1.71h-0.57v-2.45h0Z" transform="translate(-9374.21 -8214.7)"/><path class="cls-2" d="M9424.82,8230a1.72,1.72,0,0,1-.71-0.14,1.33,1.33,0,0,1-.54-0.44h0a5.34,5.34,0,0,1,0,.66v1.64H9423v-5.79h0.5l0.08,0.54h0a1.41,1.41,0,0,1,.54-0.47,1.66,1.66,0,0,1,.71-0.14,1.5,1.5,0,0,1,1.23.54,2.9,2.9,0,0,1,0,3.05A1.5,1.5,0,0,1,9424.82,8230Zm-0.09-3.63a1.07,1.07,0,0,0-.88.34,1.75,1.75,0,0,0-.28,1.08v0.13a2,2,0,0,0,.28,1.2,1.07,1.07,0,0,0,.9.36,0.93,0.93,0,0,0,.81-0.42,2,2,0,0,0,.29-1.15,1.91,1.91,0,0,0-.29-1.14,1,1,0,0,0-.81-0.41h0Z" transform="translate(-9374.21 -8214.7)"/><path class="cls-2" d="M9427.89,8229.95h-0.6v-5.67h0.6v5.67Z" transform="translate(-9374.21 -8214.7)"/><path class="cls-2" d="M9431.37,8229.95l-0.12-.57h0a1.67,1.67,0,0,1-.59.5,1.82,1.82,0,0,1-.74.13,1.34,1.34,0,0,1-.93-0.3,1.12,1.12,0,0,1-.34-0.87q0-1.21,1.94-1.27h0.68v-0.25a1,1,0,0,0-.2-0.69,0.83,0.83,0,0,0-.65-0.23,2.63,2.63,0,0,0-1.13.3l-0.19-.46a2.94,2.94,0,0,1,.64-0.25,2.8,2.8,0,0,1,.7-0.09,1.5,1.5,0,0,1,1.06.32,1.33,1.33,0,0,1,.34,1v2.73h-0.45Zm-1.37-.42a1.23,1.23,0,0,0,.89-0.31,1.15,1.15,0,0,0,.32-0.87V8228h-0.6a2.19,2.19,0,0,0-1,.23,0.68,0.68,0,0,0-.32.62,0.62,0.62,0,0,0,.2.5A0.82,0.82,0,0,0,9430,8229.52Z" transform="translate(-9374.21 -8214.7)"/><path class="cls-2" d="M9432.17,8225.95h0.65l0.87,2.28a8.68,8.68,0,0,1,.35,1.12h0c0-.12.1-0.33,0.2-0.63s0.43-1.22,1-2.77h0.65l-1.72,4.55a2.27,2.27,0,0,1-.59,1,1.26,1.26,0,0,1-.83.28,2.47,2.47,0,0,1-.55-0.06v-0.5a2,2,0,0,0,.45,0,0.92,0.92,0,0,0,.89-0.7l0.22-.57Z" transform="translate(-9374.21 -8214.7)"/><path class="cls-2" d="M9413.6,8226.34a1.36,1.36,0,0,1-.11,2.31,0.59,0.59,0,0,0-.23.41,0.46,0.46,0,0,0,.22.36l0.3,0.24a1.45,1.45,0,0,1,.7,1.17c0,0.78-.76,1.58-2.2,1.58-1.21,0-1.8-.57-1.8-1.19a1.2,1.2,0,0,1,.64-1,3.61,3.61,0,0,1,1.59-.38,0.87,0.87,0,0,1-.25-0.57,0.76,0.76,0,0,1,.08-0.33h-0.27a1.32,1.32,0,0,1-1.39-1.25s0,0,0-.06a1.5,1.5,0,0,1,.53-1.12,2.28,2.28,0,0,1,1.5-.46h1.72l-0.53.3h-0.51Zm-0.59,3.71h-0.19a3.31,3.31,0,0,0-.88.13,0.94,0.94,0,0,0-.72.86c0,0.59.57,1,1.47,1a1,1,0,0,0,1.23-.9,1.44,1.44,0,0,0-.9-1.11v0Zm0.24-1.59a0.84,0.84,0,0,0,.21-0.61c0-.6-0.36-1.54-1.05-1.54a0.78,0.78,0,0,0-.58.27,1,1,0,0,0-.19.62c0,0.56.32,1.5,1,1.5a0.85,0.85,0,0,0,.57-0.26v0Z" transform="translate(-9374.21 -8214.7)"/><path class="cls-2" d="M9408.32,8229.9a2,2,0,0,1-2-1.9s0,0,0-.07a2.07,2.07,0,0,1,2.11-2h0.05a2,2,0,0,1,2,1.91s0,0,0,.06a2,2,0,0,1-2,2h-0.08Zm1-.67a1.5,1.5,0,0,0,.25-0.92c0-.73-0.35-2.14-1.38-2.14a1.17,1.17,0,0,0-.75.28,1.26,1.26,0,0,0-.38,1c0,0.82.41,2.18,1.42,2.18a1.06,1.06,0,0,0,.87-0.41h0Z" transform="translate(-9374.21 -8214.7)"/><path class="cls-2" d="M9403.82,8229.9a2,2,0,0,1-2-1.9s0,0,0-.07a2.07,2.07,0,0,1,2.11-2h0.06a2,2,0,0,1,2,1.9s0,0,0,.07a2,2,0,0,1-2,2h-0.08Zm1-.67a1.5,1.5,0,0,0,.25-0.92c0-.73-0.35-2.14-1.38-2.14a1.17,1.17,0,0,0-.75.28,1.26,1.26,0,0,0-.38,1c0,0.82.41,2.18,1.42,2.18a1.07,1.07,0,0,0,.84-0.41h0Z" transform="translate(-9374.21 -8214.7)"/><path class="cls-2" d="M9401.14,8229.77l-1.2.27a8.93,8.93,0,0,1-1.38.14,3,3,0,0,1-3.19-2.79q0-.12,0-0.25a3.17,3.17,0,0,1,3.39-3.14,4.84,4.84,0,0,1,1.28.18,3.26,3.26,0,0,1,1.11.5l-0.69.66-0.29.06,0.21-.33a2.4,2.4,0,0,0-1.79-.79,2.32,2.32,0,0,0-2.33,2.31q0,0.1,0,.19a3,3,0,0,0,2.87,3.06h0.1a2.5,2.5,0,0,0,1.06-.21v-1.35l-1.26.06,0.67-.36h1.78l-0.22.21a0.19,0.19,0,0,0-.08.13v1.42h0Z" transform="translate(-9374.21 -8214.7)"/><path class="cls-2" d="M9416.26,8229.53c-0.27,0-.33-0.07-0.33-0.4v-4.78a0.53,0.53,0,0,1,.38-0.5h-1.2l-0.63.3h0.64v5.18a0.61,0.61,0,0,1-.22.44h1.5l0.31-.19Z" transform="translate(-9374.21 -8214.7)"/><path class="cls-2" d="M9419.67,8229.61l-0.27.15a1.93,1.93,0,0,1-.81.16,1.78,1.78,0,0,1-1.11-.32,2.15,2.15,0,0,1-.85-1.76,1.89,1.89,0,0,1,1.85-1.92h0.06a1.62,1.62,0,0,1,.86.24,1.38,1.38,0,0,1,.58.82l-2,.79-0.64.05a1.85,1.85,0,0,0,1.72,1.67,2.16,2.16,0,0,0,1-.29Zm-0.78-2.5a0.26,0.26,0,0,0,.24-0.23,0.82,0.82,0,0,0-.82-0.71,1,1,0,0,0-1,1.08s0,0.05,0,.08a2.65,2.65,0,0,0,0,.44Z" transform="translate(-9374.21 -8214.7)"/><path class="cls-2" d="M9420.48,8226v0.55h-0.06V8226h-0.18v-0.05h0.43V8226h-0.19Z" transform="translate(-9374.21 -8214.7)"/><path class="cls-2" d="M9421.23,8226.51V8226h0l-0.17.55H9421l-0.17-.55h0v0.55h-0.06v-0.6h0.1l0.15,0.5h0l0.15-.5h0.1v0.6h-0.07Z" transform="translate(-9374.21 -8214.7)"/><g id="PLAY"><g class="cls-4"><polygon class="cls-5" points="5.5 2.78 5.5 9.4 5.5 16.01 12.46 9.4 5.5 2.78"/><polygon class="cls-6" points="14.33 7.62 11.52 6.06 5.5 2.73 5.5 2.78 12.46 9.4 14.33 7.62"/><polygon class="cls-7" points="5.5 16.01 5.5 16.06 11.52 12.73 14.33 11.17 12.46 9.4 5.5 16.01"/><polygon class="cls-8" points="14.33 7.62 12.46 9.4 14.33 11.17 17.54 9.4 14.33 7.62"/></g></g></svg>