<svg xmlns="http://www.w3.org/2000/svg" xmlns:xlink="http://www.w3.org/1999/xlink" width="1440" height="160" viewBox="0 0 1440 160"><defs><path id="a" d="M0 0h1440v160H0z"/><linearGradient id="c" x1="5.384%" x2="94.601%" y1="5.466%" y2="94.682%"><stop offset="0%" stop-color="#231F20"/><stop offset="100%" stop-color="#231F20" stop-opacity="0"/></linearGradient><linearGradient id="d" x1="94.48%" x2="5.221%" y1="5.459%" y2="94.585%"><stop offset="0%" stop-color="#231F20"/><stop offset="100%" stop-color="#231F20" stop-opacity="0"/></linearGradient><linearGradient id="e" x1="97.266%" x2="2.719%" y1="2.697%" y2="97.242%"><stop offset="0%" stop-color="#231F20"/><stop offset="100%" stop-color="#231F20" stop-opacity="0"/></linearGradient><linearGradient id="f" x1="8.759%" x2="91.16%" y1="8.702%" y2="91.119%"><stop offset="0%" stop-color="#231F20"/><stop offset="100%" stop-color="#231F20" stop-opacity="0"/></linearGradient><linearGradient id="g" x1="95.466%" x2="4.535%" y1="4.48%" y2="95.478%"><stop offset="0%" stop-color="#231F20"/><stop offset="100%" stop-color="#231F20" stop-opacity="0"/></linearGradient><linearGradient id="h" x1="94.957%" x2="4.95%" y1="4.946%" y2="94.952%"><stop offset="0%" stop-color="#231F20"/><stop offset="100%" stop-color="#231F20" stop-opacity="0"/></linearGradient><linearGradient id="i" x1="98.01%" x2="1.989%" y1="2.012%" y2="97.954%"><stop offset="0%" stop-color="#231F20"/><stop offset="100%" stop-color="#231F20" stop-opacity="0"/></linearGradient><linearGradient id="j" x1="98.952%" x2="1.031%" y1="1.043%" y2="98.917%"><stop offset="0%" stop-color="#231F20"/><stop offset="100%" stop-color="#231F20" stop-opacity="0"/></linearGradient><linearGradient id="k" x1="98.47%" x2="1.524%" y1="1.527%" y2="98.473%"><stop offset="0%" stop-color="#231F20"/><stop offset="100%" stop-color="#231F20" stop-opacity="0"/></linearGradient><linearGradient id="l" x1="8.792%" x2="91.192%" y1="8.702%" y2="91.119%"><stop offset="0%" stop-color="#231F20"/><stop offset="100%" stop-color="#231F20" stop-opacity="0"/></linearGradient><linearGradient id="m" x1="95.482%" x2="4.551%" y1="4.48%" y2="95.478%"><stop offset="0%" stop-color="#231F20"/><stop offset="100%" stop-color="#231F20" stop-opacity="0"/></linearGradient><linearGradient id="n" x1="98.011%" x2="1.989%" y1="2.012%" y2="97.954%"><stop offset="0%" stop-color="#231F20"/><stop offset="100%" stop-color="#231F20" stop-opacity="0"/></linearGradient><linearGradient id="o" x1="4.49%" x2="95.691%" y1="4.442%" y2="95.476%"><stop offset="0%" stop-color="#29CC7A"/><stop offset="100%" stop-color="#29CC7A" stop-opacity="0"/></linearGradient><linearGradient id="p" x1="97.042%" x2="2.967%" y1="2.959%" y2="97.074%"><stop offset="0%" stop-color="#29CC7A"/><stop offset="100%" stop-color="#29CC7A" stop-opacity="0"/></linearGradient><linearGradient id="q" x1="96.775%" x2="3.212%" y1="3.233%" y2="96.802%"><stop offset="0%" stop-color="#29CC7A"/><stop offset="100%" stop-color="#29CC7A" stop-opacity="0"/></linearGradient><linearGradient id="r" x1="5.38%" x2="94.639%" y1="5.277%" y2="94.625%"><stop offset="0%" stop-color="#29CC7A"/><stop offset="100%" stop-color="#29CC7A" stop-opacity="0"/></linearGradient><linearGradient id="s" x1="4.528%" x2="95.554%" y1="4.445%" y2="95.547%"><stop offset="0%" stop-color="#29CC7A"/><stop offset="100%" stop-color="#29CC7A" stop-opacity="0"/></linearGradient><linearGradient id="t" x1="96.798%" x2="3.184%" y1="3.209%" y2="96.767%"><stop offset="0%" stop-color="#29CC7A"/><stop offset="100%" stop-color="#29CC7A" stop-opacity="0"/></linearGradient><linearGradient id="u" x1="98.351%" x2="1.635%" y1="1.655%" y2="98.31%"><stop offset="0%" stop-color="#29CC7A"/><stop offset="100%" stop-color="#29CC7A" stop-opacity="0"/></linearGradient><linearGradient id="v" x1="94.862%" x2="5.054%" y1="5.107%" y2="94.914%"><stop offset="0%" stop-color="#29CC7A"/><stop offset="100%" stop-color="#29CC7A" stop-opacity="0"/></linearGradient><linearGradient id="w" x1="97.153%" x2="2.811%" y1="2.869%" y2="97.155%"><stop offset="0%" stop-color="#29CC7A"/><stop offset="100%" stop-color="#29CC7A" stop-opacity="0"/></linearGradient><linearGradient id="x" x1="2.827%" x2="97.114%" y1="2.863%" y2="97.149%"><stop offset="0%" stop-color="#29CC7A"/><stop offset="100%" stop-color="#29CC7A" stop-opacity="0"/></linearGradient><linearGradient id="y" x1="4.523%" x2="95.723%" y1="4.442%" y2="95.476%"><stop offset="0%" stop-color="#29CC7A"/><stop offset="100%" stop-color="#29CC7A" stop-opacity="0"/></linearGradient><linearGradient id="z" x1="96.788%" x2="3.223%" y1="3.235%" y2="96.801%"><stop offset="0%" stop-color="#29CC7A"/><stop offset="100%" stop-color="#29CC7A" stop-opacity="0"/></linearGradient><linearGradient id="A" x1="97.042%" x2="2.967%" y1="2.959%" y2="97.074%"><stop offset="0%" stop-color="#29CC7A"/><stop offset="100%" stop-color="#29CC7A" stop-opacity="0"/></linearGradient><linearGradient id="B" x1="97.096%" x2="2.81%" y1="2.869%" y2="97.155%"><stop offset="0%" stop-color="#29CC7A"/><stop offset="100%" stop-color="#29CC7A" stop-opacity="0"/></linearGradient></defs><g fill="none" fill-rule="evenodd"><mask id="b" fill="#fff"><use xlink:href="#a"/></mask><g fill-rule="nonzero" mask="url(#b)" opacity=".3"><path d="M167.9 80.8c4.5 0 8.2 3.7 8.2 8.2 0 4.5-3.7 8.2-8.2 8.2-4.5 0-8.2-3.7-8.2-8.2-.1-4.5 3.6-8.2 8.2-8.2zm-.1-4.1c-6.8 0-12.3 5.5-12.3 12.4 0 6.8 5.5 12.3 12.4 12.3 6.8 0 12.3-5.5 12.3-12.4s-5.5-12.3-12.4-12.3zM282 98.6c4.5 0 8.2 3.7 8.2 8.2 0 4.5-3.7 8.2-8.2 8.2-4.5 0-8.2-3.7-8.2-8.2 0-4.5 3.7-8.2 8.2-8.2zm0-4.2c-6.8 0-12.4 5.5-12.4 12.3 0 6.8 5.5 12.4 12.3 12.4 6.8 0 12.4-5.5 12.4-12.3 0-6.8-5.5-12.3-12.3-12.4zm766.2 17.2c4.5 0 8.2 3.7 8.2 8.2 0 4.5-3.7 8.2-8.2 8.2-4.5 0-8.2-3.7-8.2-8.2 0-4.5 3.7-8.2 8.2-8.2zm0-4.1c-6.8 0-12.3 5.5-12.3 12.3 0 6.8 5.5 12.4 12.3 12.4 6.8 0 12.3-5.5 12.3-12.3.1-6.9-5.4-12.4-12.3-12.4zM490.7 93.1c6.8 0 12.4 5.5 12.4 12.3 0 6.8-5.5 12.4-12.3 12.4-6.8 0-12.4-5.5-12.4-12.3 0-6.8 5.5-12.4 12.3-12.4zm0-6.1c-10.2 0-18.5 8.3-18.5 18.5s8.3 18.5 18.5 18.5 18.5-8.3 18.5-18.5-8.3-18.6-18.5-18.5c0-.1 0-.1 0 0zM863 67.5c6.8 0 12.3 5.5 12.3 12.4 0 6.8-5.5 12.3-12.4 12.3-6.8 0-12.3-5.5-12.3-12.3 0-6.9 5.5-12.4 12.4-12.4zm0-6.2c-10.2 0-18.5 8.3-18.5 18.5s8.3 18.5 18.5 18.5 18.5-8.3 18.5-18.5-8.3-18.5-18.5-18.5zm-334 67c6.8 0 12.4 5.5 12.4 12.3 0 6.8-5.5 12.4-12.3 12.4-6.8 0-12.4-5.5-12.4-12.3 0-6.9 5.5-12.4 12.3-12.4zm0-6.2c-10.2 0-18.5 8.3-18.5 18.5s8.3 18.5 18.5 18.5 18.5-8.3 18.5-18.5-8.3-18.5-18.5-18.5zM59 16.7c3 0 5.5 2.5 5.5 5.5S62 27.7 59 27.7s-5.5-2.5-5.5-5.5 2.5-5.5 5.5-5.5zm0-2.7c-4.5 0-8.2 3.7-8.2 8.2 0 4.5 3.7 8.2 8.2 8.2 4.5 0 8.2-3.7 8.2-8.2 0-4.5-3.7-8.2-8.2-8.2zm598.7 90.5c3 0 5.5 2.5 5.5 5.5s-2.5 5.5-5.5 5.5-5.5-2.5-5.5-5.5 2.5-5.5 5.5-5.5zm0-2.7c-4.5 0-8.2 3.7-8.2 8.2 0 4.5 3.7 8.2 8.2 8.2 4.5 0 8.2-3.7 8.2-8.2 0-4.5-3.7-8.2-8.2-8.2zm520.9-54.2c3 0 5.5 2.5 5.5 5.5s-2.5 5.5-5.5 5.5-5.5-2.5-5.5-5.5 2.5-5.5 5.5-5.5zm0-2.7c-4.5 0-8.2 3.7-8.2 8.2 0 4.5 3.7 8.2 8.2 8.2 4.5 0 8.2-3.7 8.2-8.2 0-4.5-3.7-8.2-8.2-8.2zm96.1 48.2c6.8 0 12.3 5.5 12.3 12.3 0 6.8-5.5 12.4-12.3 12.4-6.8 0-12.3-5.5-12.3-12.3 0-6.8 5.5-12.4 12.3-12.4zm0-6.1c-10.2 0-18.5 8.3-18.5 18.5s8.3 18.5 18.5 18.5 18.5-8.3 18.5-18.5-8.2-18.6-18.5-18.5c0-.1 0-.1 0 0zm38.3 41.3c6.8 0 12.3 5.5 12.3 12.3 0 6.8-5.5 12.4-12.3 12.4-6.8 0-12.3-5.5-12.3-12.3 0-6.9 5.5-12.4 12.3-12.4zm0-6.2c-10.2 0-18.5 8.3-18.5 18.5s8.3 18.5 18.5 18.5 18.5-8.3 18.5-18.5-8.3-18.5-18.5-18.5z" fill="#231F20" opacity=".5"/><g opacity=".5"><path fill="url(#c)" d="M55.3 67.8c-3.2 0-6.3-1.2-8.7-3.6L4.1 21.7C-.7 16.9-.7 9.1 4.1 4.2c4.8-4.8 12.6-4.8 17.5 0l42.5 42.5c4.8 4.8 4.8 12.6 0 17.5-2.4 2.4-5.6 3.6-8.8 3.6z" transform="translate(155 76)"/><path fill="url(#d)" d="M12.9 67.7c-3.2 0-6.3-1.2-8.7-3.6-4.8-4.8-4.8-12.6 0-17.5L46.6 4.1c4.8-4.8 12.6-4.8 17.5 0 4.8 4.8 4.8 12.6 0 17.5L21.7 64.1c-2.5 2.4-5.7 3.6-8.8 3.6z" transform="translate(993 107)"/><path fill="url(#e)" d="M13.2 132.9c-3.2 0-6.3-1.2-8.7-3.6-4.8-4.8-4.8-12.6 0-17.5L112.2 4.1c4.8-4.8 12.6-4.8 17.5 0 4.8 4.8 4.8 12.6 0 17.5L22 129.2c-2.5 2.5-5.6 3.7-8.8 3.7z" transform="translate(161 94)"/><path fill="url(#f)" d="M43.5 61.7c-4.7 0-9.5-1.8-13.1-5.4L5.9 31.8c-7.2-7.2-7.2-19 0-26.2 7.2-7.2 19-7.2 26.2 0l24.5 24.5c7.2 7.2 7.2 19 0 26.2-3.7 3.6-8.4 5.4-13.1 5.4z" transform="translate(510 122)"/><path fill="url(#g)" d="M19.2 119.4c-4.7 0-9.5-1.8-13.1-5.4-7.2-7.2-7.2-19 0-26.2L88.6 5.4c7.2-7.2 19-7.2 26.2 0 7.2 7.2 7.2 19 0 26.2L32.3 114c-3.6 3.6-8.4 5.4-13.1 5.4z" transform="translate(389 87)"/><path fill="url(#h)" d="M18.8 108.6c-4.7 0-9.5-1.8-13.1-5.4-7.2-7.2-7.2-19 0-26.2L76.9 5.8c7.2-7.2 19-7.2 26.2 0 7.2 7.2 7.2 19 0 26.2l-71.2 71.2c-3.7 3.6-8.4 5.4-13.1 5.4z" transform="translate(773 61)"/><path fill="url(#i)" d="M8.7 119.8c-2.1 0-4.2-.8-5.8-2.4-3.2-3.2-3.2-8.4 0-11.6L106.2 2.4c3.2-3.2 8.4-3.2 11.6 0 3.2 3.2 3.2 8.4 0 11.6L14.5 117.3c-1.6 1.7-3.7 2.5-5.8 2.5z" transform="translate(-53 14)"/><path fill="url(#j)" d="M8.5 228.5c-2.1 0-4.2-.8-5.8-2.4-3.2-3.2-3.2-8.4 0-11.6L213.9 3.2c3.2-3.2 8.4-3.2 11.6 0 3.2 3.2 3.2 8.4 0 11.6L14.3 226c-1.6 1.6-3.7 2.5-5.8 2.5z" transform="translate(438 101)"/><path fill="url(#k)" d="M8.3 156.6c-2.1 0-4.2-.8-5.8-2.4-3.2-3.2-3.2-8.4 0-11.6L141.8 3.3c3.2-3.2 8.4-3.2 11.6 0 3.2 3.2 3.2 8.4 0 11.6L14.1 154.2c-1.6 1.6-3.7 2.4-5.8 2.4z" transform="translate(1031 44)"/><path fill="url(#l)" d="M43.5 61.7c-4.7 0-9.5-1.8-13.1-5.4L5.9 31.8c-7.2-7.2-7.2-19 0-26.2 7.2-7.2 19-7.2 26.2 0l24.5 24.5c7.2 7.2 7.2 19 0 26.2-3.6 3.6-8.4 5.4-13.1 5.4z" transform="translate(1294 122)"/><path fill="url(#m)" d="M19.2 119.4c-4.7 0-9.5-1.8-13.1-5.4-7.2-7.2-7.2-19 0-26.2L88.6 5.4c7.2-7.2 19-7.2 26.2 0 7.2 7.2 7.2 19 0 26.2L32.3 114c-3.6 3.6-8.4 5.4-13.1 5.4z" transform="translate(1173 87)"/><path fill="url(#n)" d="M8.7 119.8c-2.1 0-4.2-.8-5.8-2.4-3.2-3.2-3.2-8.4 0-11.6L106.2 2.4c3.2-3.2 8.4-3.2 11.6 0 3.2 3.2 3.2 8.4 0 11.6L14.5 117.3c-1.6 1.7-3.7 2.5-5.8 2.5z" transform="translate(1387 14)"/></g><g opacity=".8"><path fill="url(#o)" d="M51.7 61.9c-2.4 0-4.7-.9-6.6-2.7L2.7 16.7c-3.6-3.6-3.6-9.5 0-13.1C6.3 0 12.2 0 15.8 3.6l42.4 42.5c3.6 3.6 3.6 9.5 0 13.1-1.8 1.8-4.1 2.7-6.5 2.7z" transform="translate(542 87)"/><path fill="url(#p)" d="M21.6 214.3c-5.5 0-11.1-2.1-15.3-6.3-8.4-8.4-8.4-22.1 0-30.6l171.1-171c8.4-8.4 22.1-8.4 30.6 0 8.4 8.4 8.4 22.1 0 30.6L36.9 208c-4.2 4.2-9.8 6.3-15.3 6.3z" transform="translate(-55 15)"/><path fill="url(#q)" d="M19 169c-4.7 0-9.5-1.8-13.1-5.4-7.2-7.2-7.2-19 0-26.2L137.2 6.1c7.2-7.2 19-7.2 26.2 0 7.2 7.2 7.2 19 0 26.2L32.1 163.6c-3.6 3.6-8.4 5.4-13.1 5.4z" transform="translate(286 64)"/><path fill="url(#r)" d="M82.6 101.4c-4.7 0-9.5-1.8-13.1-5.4L5.4 32c-7.2-7.2-7.2-19 0-26.2 7.2-7.2 19-7.2 26.2 0l64.1 64c7.2 7.2 7.2 19 0 26.2-3.6 3.6-8.3 5.4-13.1 5.4z" transform="translate(262 22)"/><path fill="url(#s)" d="M103.8 121.6c-4.7 0-9.5-1.8-13.1-5.4L6.3 31.9c-7.2-7.2-7.2-19 0-26.2 7.2-7.2 19-7.2 26.2 0L116.9 90c7.2 7.2 7.2 19 0 26.2-3.6 3.6-8.3 5.4-13.1 5.4z" transform="translate(723 149)"/><path fill="url(#t)" d="M18.8 169c-4.7 0-9.5-1.8-13.1-5.4-7.2-7.2-7.2-19 0-26.2L136.8 6.2c7.2-7.2 19-7.2 26.2 0 7.2 7.2 7.2 19 0 26.2L31.8 163.6c-3.6 3.6-8.3 5.4-13 5.4z" transform="translate(591 80)"/><path fill="url(#u)" d="M8.6 145.1c-2.1 0-4.2-.8-5.8-2.4-3.2-3.2-3.2-8.4 0-11.6L131.3 2.5c3.2-3.2 8.4-3.2 11.6 0 3.2 3.2 3.2 8.4 0 11.6L14.4 142.6c-1.6 1.7-3.7 2.5-5.8 2.5z" transform="translate(813 60)"/><path fill="url(#v)" d="M17.2 94.8c-4.2 0-8.4-1.6-11.6-4.8-6.4-6.4-6.4-16.9 0-23.3L66.9 5.4C73.3-1 83.7-1 90.2 5.4c6.4 6.4 6.4 16.9 0 23.3L28.9 90c-3.3 3.2-7.5 4.8-11.7 4.8z" transform="translate(958 38)"/><path fill="url(#w)" d="M17.1 168.4c-4.2 0-8.4-1.6-11.6-4.8-6.4-6.4-6.4-16.8 0-23.3L140.9 4.8c6.4-6.4 16.9-6.4 23.3 0 6.4 6.4 6.4 16.9 0 23.3L28.7 163.6c-3.2 3.2-7.4 4.8-11.6 4.8z" transform="translate(-9 107)"/><path fill="url(#x)" d="M152.2 169.3c-4.2 0-8.4-1.6-11.6-4.8L5.1 29c-6.4-6.4-6.4-16.9 0-23.3C11.5-.7 22-.7 28.4 5.7l135.5 135.5c6.4 6.4 6.4 16.8 0 23.3-3.3 3.2-7.5 4.8-11.7 4.8z" transform="translate(916 127)"/><path fill="url(#y)" d="M51.7 61.9c-2.4 0-4.7-.9-6.6-2.7L2.7 16.7c-3.6-3.6-3.6-9.5 0-13.1C6.3 0 12.2 0 15.8 3.6l42.4 42.5c3.6 3.6 3.6 9.5 0 13.1-1.7 1.8-4.1 2.7-6.5 2.7z" transform="translate(1326 87)"/><path fill="url(#z)" d="M19 169c-4.7 0-9.5-1.8-13.1-5.4-7.2-7.2-7.2-19 0-26.2L137.2 6.1c7.2-7.2 19-7.2 26.2 0 7.2 7.2 7.2 19 0 26.2L32.1 163.6c-3.6 3.6-8.3 5.4-13.1 5.4z" transform="translate(1070 64)"/><path fill="url(#A)" d="M21.6 214.3c-5.5 0-11.1-2.1-15.3-6.3-8.4-8.4-8.4-22.1 0-30.6l171.1-171c8.4-8.4 22.1-8.4 30.6 0 8.4 8.4 8.4 22.1 0 30.6L36.9 208c-4.2 4.2-9.8 6.3-15.3 6.3z" transform="translate(1385 15)"/><path fill="url(#B)" d="M17.1 168.4c-4.2 0-8.4-1.6-11.6-4.8-6.4-6.4-6.4-16.8 0-23.3L141 4.8c6.4-6.4 16.8-6.4 23.3 0 6.4 6.4 6.4 16.9 0 23.3L28.8 163.6c-3.3 3.2-7.5 4.8-11.7 4.8z" transform="translate(1431 107)"/></g><path fill="#29CC7A" d="M280.5 28.5c6.8 0 12.4 5.5 12.4 12.4s-5.5 12.3-12.4 12.3c-6.8 0-12.4-5.5-12.4-12.3.1-6.9 5.6-12.4 12.4-12.4zm0-6.2c-10.2 0-18.5 8.3-18.5 18.5s8.3 18.5 18.5 18.5S299 51 299 40.8s-8.3-18.5-18.5-18.5zm155.8 48.6c6.8 0 12.4 5.5 12.4 12.4s-5.5 12.3-12.4 12.3c-6.8 0-12.4-5.5-12.4-12.3 0-6.9 5.6-12.4 12.4-12.4zm0-6.2c-10.2 0-18.5 8.3-18.5 18.5s8.3 18.5 18.5 18.5 18.5-8.3 18.5-18.5-8.3-18.5-18.5-18.5zm306.2 22.2c6.8 0 12.4 5.5 12.4 12.3 0 6.8-5.5 12.4-12.3 12.4-6.8 0-12.4-5.5-12.4-12.3-.1-6.8 5.5-12.3 12.3-12.4zm0-6.1c-10.2 0-18.5 8.3-18.5 18.5s8.3 18.5 18.5 18.5 18.5-8.3 18.5-18.5-8.3-18.5-18.5-18.5zm0 74.7c6.8 0 12.4 5.5 12.4 12.3 0 6.8-5.5 12.4-12.3 12.4-6.8 0-12.4-5.5-12.4-12.3-.1-6.9 5.5-12.4 12.3-12.4zm0-6.2c-10.2 0-18.5 8.3-18.5 18.5s8.3 18.5 18.5 18.5S761 178 761 167.8s-8.3-18.5-18.5-18.5zM551.3 91c3.4 0 6.2 2.8 6.2 6.2 0 3.4-2.8 6.2-6.2 6.2-3.4 0-6.2-2.8-6.2-6.2 0-3.4 2.8-6.2 6.2-6.2zm0-3.1c-5.1 0-9.3 4.1-9.3 9.3 0 5.2 4.1 9.3 9.3 9.3 5.1 0 9.3-4.1 9.3-9.3 0-5.1-4.2-9.3-9.3-9.3zm669-17c6.8 0 12.4 5.5 12.4 12.3 0 6.8-5.5 12.4-12.3 12.4-6.8 0-12.4-5.5-12.4-12.3v-.1c0-6.8 5.5-12.3 12.3-12.3zm0-6.2c-10.2 0-18.5 8.3-18.5 18.5s8.3 18.5 18.5 18.5 18.5-8.3 18.5-18.5-8.3-18.5-18.5-18.5zm115 26.3c3.4 0 6.2 2.8 6.2 6.2 0 3.4-2.8 6.2-6.2 6.2-3.4 0-6.2-2.8-6.2-6.2.1-3.4 2.8-6.2 6.2-6.2zm0-3.1c-5.1 0-9.3 4.1-9.3 9.3 0 5.2 4.1 9.3 9.3 9.3 5.1 0 9.3-4.1 9.3-9.3 0-5.1-4.2-9.3-9.3-9.3zM950.1 62.8c3 0 5.5 2.5 5.5 5.5s-2.5 5.5-5.5 5.5-5.5-2.5-5.5-5.5 2.5-5.5 5.5-5.5zm0-2.7c-4.5 0-8.2 3.7-8.2 8.2 0 4.5 3.7 8.2 8.2 8.2 4.5 0 8.2-3.7 8.2-8.2 0-4.5-3.7-8.2-8.2-8.2zm-17.4 73.3c6.1 0 11 4.9 11 11s-4.9 11-11 11-11-4.9-11-11 4.9-11 11-11zm0-5.5c-9.1 0-16.5 7.4-16.5 16.5s7.4 16.5 16.5 16.5 16.5-7.4 16.5-16.5-7.4-16.5-16.5-16.5zm103.8-83.8c6.1 0 11 4.9 11 11s-4.9 11-11 11-11-4.9-11-11 4.9-11 11-11zm0-5.5c-9.1 0-16.5 7.4-16.4 16.5 0 9.1 7.4 16.5 16.5 16.4 9.1 0 16.4-7.4 16.4-16.5 0-9-7.4-16.4-16.5-16.4zm-892.9 73.9c6.1 0 11 4.9 11 11s-4.9 11-11 11-11-4.9-11-11 4.9-11 11-11zm0-5.5c-9.1 0-16.5 7.3-16.5 16.4 0 9.1 7.3 16.5 16.4 16.5 9.1 0 16.5-7.3 16.5-16.4 0-9.1-7.3-16.5-16.4-16.5zm-5.9-84.7c8 0 14.4 6.4 14.4 14.4s-6.4 14.4-14.4 14.4-14.4-6.4-14.4-14.4c0-7.9 6.5-14.4 14.4-14.4zm0-7.2c-11.9 0-21.6 9.7-21.6 21.6 0 11.9 9.7 21.6 21.6 21.6 11.9 0 21.6-9.7 21.6-21.6 0-11.9-9.7-21.6-21.6-21.6z"/></g></g></svg>